<svg xmlns="http://www.w3.org/2000/svg" viewBox="0 0 770 128" width="100%" height="128" font-family="Segoe UI, Helvetica, Arial, sans-serif">
<rect x="28" y="20" width="11" height="11" rx="2.5" ry="2.5" fill="#1b1f27"><title>2025-07-28: 0 submissions</title></rect>
<rect x="28" y="34" width="11" height="11" rx="2.5" ry="2.5" fill="#1b1f27"><title>2025-07-29: 0 submissions</title></rect>
<rect x="28" y="48" width="11" height="11" rx="2.5" ry="2.5" fill="#1b1f27"><title>2025-07-30: 0 submissions</title></rect>
<rect x="28" y="62" width="11" height="11" rx="2.5" ry="2.5" fill="#1b1f27"><title>2025-07-31: 0 submissions</title></rect>
<rect x="28" y="76" width="11" height="11" rx="2.5" ry="2.5" fill="#1b1f27"><title>2025-08-01: 0 submissions</title></rect>
<text x="28" y="13" font-size="9" fill="#8b8f98">Aug</text>
<rect x="28" y="90" width="11" height="11" rx="2.5" ry="2.5" fill="#7a3a52"><title>2025-08-02: 10 submissions</title></rect>
<rect x="28" y="104" width="11" height="11" rx="2.5" ry="2.5" fill="#7a3a52"><title>2025-08-03: 10 submissions</title></rect>
<rect x="42" y="20" width="11" height="11" rx="2.5" ry="2.5" fill="#7a3a52"><title>2025-08-04: 10 submissions</title></rect>
<rect x="42" y="34" width="11" height="11" rx="2.5" ry="2.5" fill="#7a3a52"><title>2025-08-05: 8 submissions</title></rect>
<rect x="42" y="48" width="11" height="11" rx="2.5" ry="2.5" fill="#7a3a52"><title>2025-08-06: 8 submissions</title></rect>
<rect x="42" y="62" width="11" height="11" rx="2.5" ry="2.5" fill="#3a2530"><title>2025-08-07: 3 submissions</title></rect>
<rect x="42" y="76" width="11" height="11" rx="2.5" ry="2.5" fill="#3a2530"><title>2025-08-08: 2 submissions</title></rect>
<rect x="42" y="90" width="11" height="11" rx="2.5" ry="2.5" fill="#3a2530"><title>2025-08-09: 7 submissions</title></rect>
<rect x="42" y="104" width="11" height="11" rx="2.5" ry="2.5" fill="#F48FB1"><title>2025-08-10: 22 submissions</title></rect>
<rect x="56" y="20" width="11" height="11" rx="2.5" ry="2.5" fill="#F48FB1"><title>2025-08-11: 22 submissions</title></rect>
<rect x="56" y="34" width="11" height="11" rx="2.5" ry="2.5" fill="#3a2530"><title>2025-08-12: 1 submissions</title></rect>
<rect x="56" y="48" width="11" height="11" rx="2.5" ry="2.5" fill="#3a2530"><title>2025-08-13: 4 submissions</title></rect>
<rect x="56" y="62" width="11" height="11" rx="2.5" ry="2.5" fill="#3a2530"><title>2025-08-14: 4 submissions</title></rect>
<rect x="56" y="76" width="11" height="11" rx="2.5" ry="2.5" fill="#3a2530"><title>2025-08-15: 1 submissions</title></rect>
<rect x="56" y="90" width="11" height="11" rx="2.5" ry="2.5" fill="#7a3a52"><title>2025-08-16: 9 submissions</title></rect>
<rect x="56" y="104" width="11" height="11" rx="2.5" ry="2.5" fill="#3a2530"><title>2025-08-17: 4 submissions</title></rect>
<rect x="70" y="20" width="11" height="11" rx="2.5" ry="2.5" fill="#3a2530"><title>2025-08-18: 1 submissions</title></rect>
<rect x="70" y="34" width="11" height="11" rx="2.5" ry="2.5" fill="#7a3a52"><title>2025-08-19: 11 submissions</title></rect>
<rect x="70" y="48" width="11" height="11" rx="2.5" ry="2.5" fill="#3a2530"><title>2025-08-20: 3 submissions</title></rect>
<rect x="70" y="62" width="11" height="11" rx="2.5" ry="2.5" fill="#3a2530"><title>2025-08-21: 6 submissions</title></rect>
<rect x="70" y="76" width="11" height="11" rx="2.5" ry="2.5" fill="#3a2530"><title>2025-08-22: 1 submissions</title></rect>
<rect x="70" y="90" width="11" height="11" rx="2.5" ry="2.5" fill="#7a3a52"><title>2025-08-23: 11 submissions</title></rect>
<rect x="70" y="104" width="11" height="11" rx="2.5" ry="2.5" fill="#3a2530"><title>2025-08-24: 4 submissions</title></rect>
<rect x="84" y="20" width="11" height="11" rx="2.5" ry="2.5" fill="#3a2530"><title>2025-08-25: 1 submissions</title></rect>
<rect x="84" y="34" width="11" height="11" rx="2.5" ry="2.5" fill="#7a3a52"><title>2025-08-26: 8 submissions</title></rect>
<rect x="84" y="48" width="11" height="11" rx="2.5" ry="2.5" fill="#3a2530"><title>2025-08-27: 1 submissions</title></rect>
<rect x="84" y="62" width="11" height="11" rx="2.5" ry="2.5" fill="#3a2530"><title>2025-08-28: 2 submissions</title></rect>
<rect x="84" y="76" width="11" height="11" rx="2.5" ry="2.5" fill="#3a2530"><title>2025-08-29: 6 submissions</title></rect>
<rect x="84" y="90" width="11" height="11" rx="2.5" ry="2.5" fill="#3a2530"><title>2025-08-30: 3 submissions</title></rect>
<rect x="84" y="104" width="11" height="11" rx="2.5" ry="2.5" fill="#3a2530"><title>2025-08-31: 1 submissions</title></rect>
<rect x="98" y="20" width="11" height="11" rx="2.5" ry="2.5" fill="#7a3a52"><title>2025-09-01: 8 submissions</title></rect>
<text x="98" y="13" font-size="9" fill="#8b8f98">Sep</text>
<rect x="98" y="34" width="11" height="11" rx="2.5" ry="2.5" fill="#7a3a52"><title>2025-09-02: 8 submissions</title></rect>
<rect x="98" y="48" width="11" height="11" rx="2.5" ry="2.5" fill="#7a3a52"><title>2025-09-03: 8 submissions</title></rect>
<rect x="98" y="62" width="11" height="11" rx="2.5" ry="2.5" fill="#3a2530"><title>2025-09-04: 1 submissions</title></rect>
<rect x="98" y="76" width="11" height="11" rx="2.5" ry="2.5" fill="#3a2530"><title>2025-09-05: 5 submissions</title></rect>
<rect x="98" y="90" width="11" height="11" rx="2.5" ry="2.5" fill="#3a2530"><title>2025-09-06: 2 submissions</title></rect>
<rect x="98" y="104" width="11" height="11" rx="2.5" ry="2.5" fill="#c15c81"><title>2025-09-07: 15 submissions</title></rect>
<rect x="112" y="20" width="11" height="11" rx="2.5" ry="2.5" fill="#7a3a52"><title>2025-09-08: 9 submissions</title></rect>
<rect x="112" y="34" width="11" height="11" rx="2.5" ry="2.5" fill="#3a2530"><title>2025-09-09: 1 submissions</title></rect>
<rect x="112" y="48" width="11" height="11" rx="2.5" ry="2.5" fill="#7a3a52"><title>2025-09-10: 11 submissions</title></rect>
<rect x="112" y="62" width="11" height="11" rx="2.5" ry="2.5" fill="#3a2530"><title>2025-09-11: 2 submissions</title></rect>
<rect x="112" y="76" width="11" height="11" rx="2.5" ry="2.5" fill="#3a2530"><title>2025-09-12: 2 submissions</title></rect>
<rect x="112" y="90" width="11" height="11" rx="2.5" ry="2.5" fill="#3a2530"><title>2025-09-13: 1 submissions</title></rect>
<rect x="112" y="104" width="11" height="11" rx="2.5" ry="2.5" fill="#3a2530"><title>2025-09-14: 4 submissions</title></rect>
<rect x="126" y="20" width="11" height="11" rx="2.5" ry="2.5" fill="#7a3a52"><title>2025-09-15: 8 submissions</title></rect>
<rect x="126" y="34" width="11" height="11" rx="2.5" ry="2.5" fill="#3a2530"><title>2025-09-16: 1 submissions</title></rect>
<rect x="126" y="48" width="11" height="11" rx="2.5" ry="2.5" fill="#7a3a52"><title>2025-09-17: 10 submissions</title></rect>
<rect x="126" y="62" width="11" height="11" rx="2.5" ry="2.5" fill="#3a2530"><title>2025-09-18: 2 submissions</title></rect>
<rect x="126" y="76" width="11" height="11" rx="2.5" ry="2.5" fill="#3a2530"><title>2025-09-19: 5 submissions</title></rect>
<rect x="126" y="90" width="11" height="11" rx="2.5" ry="2.5" fill="#3a2530"><title>2025-09-20: 7 submissions</title></rect>
<rect x="126" y="104" width="11" height="11" rx="2.5" ry="2.5" fill="#3a2530"><title>2025-09-21: 5 submissions</title></rect>
<rect x="140" y="20" width="11" height="11" rx="2.5" ry="2.5" fill="#3a2530"><title>2025-09-22: 1 submissions</title></rect>
<rect x="140" y="34" width="11" height="11" rx="2.5" ry="2.5" fill="#7a3a52"><title>2025-09-23: 9 submissions</title></rect>
<rect x="140" y="48" width="11" height="11" rx="2.5" ry="2.5" fill="#3a2530"><title>2025-09-24: 4 submissions</title></rect>
<rect x="140" y="62" width="11" height="11" rx="2.5" ry="2.5" fill="#3a2530"><title>2025-09-25: 6 submissions</title></rect>
<rect x="140" y="76" width="11" height="11" rx="2.5" ry="2.5" fill="#3a2530"><title>2025-09-26: 2 submissions</title></rect>
<rect x="140" y="90" width="11" height="11" rx="2.5" ry="2.5" fill="#3a2530"><title>2025-09-27: 3 submissions</title></rect>
<rect x="140" y="104" width="11" height="11" rx="2.5" ry="2.5" fill="#3a2530"><title>2025-09-28: 2 submissions</title></rect>
<rect x="154" y="20" width="11" height="11" rx="2.5" ry="2.5" fill="#3a2530"><title>2025-09-29: 4 submissions</title></rect>
<rect x="154" y="34" width="11" height="11" rx="2.5" ry="2.5" fill="#3a2530"><title>2025-09-30: 1 submissions</title></rect>
<rect x="154" y="48" width="11" height="11" rx="2.5" ry="2.5" fill="#3a2530"><title>2025-10-01: 2 submissions</title></rect>
<text x="154" y="13" font-size="9" fill="#8b8f98">Oct</text>
<rect x="154" y="62" width="11" height="11" rx="2.5" ry="2.5" fill="#3a2530"><title>2025-10-02: 1 submissions</title></rect>
<rect x="154" y="76" width="11" height="11" rx="2.5" ry="2.5" fill="#3a2530"><title>2025-10-03: 3 submissions</title></rect>
<rect x="154" y="90" width="11" height="11" rx="2.5" ry="2.5" fill="#3a2530"><title>2025-10-04: 1 submissions</title></rect>
<rect x="154" y="104" width="11" height="11" rx="2.5" ry="2.5" fill="#3a2530"><title>2025-10-05: 1 submissions</title></rect>
<rect x="168" y="20" width="11" height="11" rx="2.5" ry="2.5" fill="#3a2530"><title>2025-10-06: 7 submissions</title></rect>
<rect x="168" y="34" width="11" height="11" rx="2.5" ry="2.5" fill="#3a2530"><title>2025-10-07: 1 submissions</title></rect>
<rect x="168" y="48" width="11" height="11" rx="2.5" ry="2.5" fill="#3a2530"><title>2025-10-08: 1 submissions</title></rect>
<rect x="168" y="62" width="11" height="11" rx="2.5" ry="2.5" fill="#3a2530"><title>2025-10-09: 1 submissions</title></rect>
<rect x="168" y="76" width="11" height="11" rx="2.5" ry="2.5" fill="#3a2530"><title>2025-10-10: 2 submissions</title></rect>
<rect x="168" y="90" width="11" height="11" rx="2.5" ry="2.5" fill="#3a2530"><title>2025-10-11: 1 submissions</title></rect>
<rect x="168" y="104" width="11" height="11" rx="2.5" ry="2.5" fill="#3a2530"><title>2025-10-12: 5 submissions</title></rect>
<rect x="182" y="20" width="11" height="11" rx="2.5" ry="2.5" fill="#7a3a52"><title>2025-10-13: 14 submissions</title></rect>
<rect x="182" y="34" width="11" height="11" rx="2.5" ry="2.5" fill="#3a2530"><title>2025-10-14: 6 submissions</title></rect>
<rect x="182" y="48" width="11" height="11" rx="2.5" ry="2.5" fill="#3a2530"><title>2025-10-15: 1 submissions</title></rect>
<rect x="182" y="62" width="11" height="11" rx="2.5" ry="2.5" fill="#3a2530"><title>2025-10-16: 1 submissions</title></rect>
<rect x="182" y="76" width="11" height="11" rx="2.5" ry="2.5" fill="#3a2530"><title>2025-10-17: 3 submissions</title></rect>
<rect x="182" y="90" width="11" height="11" rx="2.5" ry="2.5" fill="#3a2530"><title>2025-10-18: 1 submissions</title></rect>
<rect x="182" y="104" width="11" height="11" rx="2.5" ry="2.5" fill="#3a2530"><title>2025-10-19: 1 submissions</title></rect>
<rect x="196" y="20" width="11" height="11" rx="2.5" ry="2.5" fill="#7a3a52"><title>2025-10-20: 9 submissions</title></rect>
<rect x="196" y="34" width="11" height="11" rx="2.5" ry="2.5" fill="#3a2530"><title>2025-10-21: 1 submissions</title></rect>
<rect x="196" y="48" width="11" height="11" rx="2.5" ry="2.5" fill="#7a3a52"><title>2025-10-22: 8 submissions</title></rect>
<rect x="196" y="62" width="11" height="11" rx="2.5" ry="2.5" fill="#3a2530"><title>2025-10-23: 1 submissions</title></rect>
<rect x="196" y="76" width="11" height="11" rx="2.5" ry="2.5" fill="#3a2530"><title>2025-10-24: 1 submissions</title></rect>
<rect x="196" y="90" width="11" height="11" rx="2.5" ry="2.5" fill="#3a2530"><title>2025-10-25: 3 submissions</title></rect>
<rect x="196" y="104" width="11" height="11" rx="2.5" ry="2.5" fill="#3a2530"><title>2025-10-26: 1 submissions</title></rect>
<rect x="210" y="20" width="11" height="11" rx="2.5" ry="2.5" fill="#c15c81"><title>2025-10-27: 20 submissions</title></rect>
<rect x="210" y="34" width="11" height="11" rx="2.5" ry="2.5" fill="#3a2530"><title>2025-10-28: 2 submissions</title></rect>
<rect x="210" y="48" width="11" height="11" rx="2.5" ry="2.5" fill="#3a2530"><title>2025-10-29: 6 submissions</title></rect>
<rect x="210" y="62" width="11" height="11" rx="2.5" ry="2.5" fill="#3a2530"><title>2025-10-30: 2 submissions</title></rect>
<rect x="210" y="76" width="11" height="11" rx="2.5" ry="2.5" fill="#3a2530"><title>2025-10-31: 2 submissions</title></rect>
<rect x="210" y="90" width="11" height="11" rx="2.5" ry="2.5" fill="#3a2530"><title>2025-11-01: 1 submissions</title></rect>
<text x="210" y="13" font-size="9" fill="#8b8f98">Nov</text>
<rect x="210" y="104" width="11" height="11" rx="2.5" ry="2.5" fill="#3a2530"><title>2025-11-02: 1 submissions</title></rect>
<rect x="224" y="20" width="11" height="11" rx="2.5" ry="2.5" fill="#3a2530"><title>2025-11-03: 5 submissions</title></rect>
<rect x="224" y="34" width="11" height="11" rx="2.5" ry="2.5" fill="#3a2530"><title>2025-11-04: 2 submissions</title></rect>
<rect x="224" y="48" width="11" height="11" rx="2.5" ry="2.5" fill="#3a2530"><title>2025-11-05: 1 submissions</title></rect>
<rect x="224" y="62" width="11" height="11" rx="2.5" ry="2.5" fill="#3a2530"><title>2025-11-06: 2 submissions</title></rect>
<rect x="224" y="76" width="11" height="11" rx="2.5" ry="2.5" fill="#3a2530"><title>2025-11-07: 1 submissions</title></rect>
<rect x="224" y="90" width="11" height="11" rx="2.5" ry="2.5" fill="#3a2530"><title>2025-11-08: 1 submissions</title></rect>
<rect x="224" y="104" width="11" height="11" rx="2.5" ry="2.5" fill="#3a2530"><title>2025-11-09: 1 submissions</title></rect>
<rect x="238" y="20" width="11" height="11" rx="2.5" ry="2.5" fill="#3a2530"><title>2025-11-10: 3 submissions</title></rect>
<rect x="238" y="34" width="11" height="11" rx="2.5" ry="2.5" fill="#3a2530"><title>2025-11-11: 4 submissions</title></rect>
<rect x="238" y="48" width="11" height="11" rx="2.5" ry="2.5" fill="#3a2530"><title>2025-11-12: 1 submissions</title></rect>
<rect x="238" y="62" width="11" height="11" rx="2.5" ry="2.5" fill="#3a2530"><title>2025-11-13: 4 submissions</title></rect>
<rect x="238" y="76" width="11" height="11" rx="2.5" ry="2.5" fill="#3a2530"><title>2025-11-14: 2 submissions</title></rect>
<rect x="238" y="90" width="11" height="11" rx="2.5" ry="2.5" fill="#3a2530"><title>2025-11-15: 2 submissions</title></rect>
<rect x="238" y="104" width="11" height="11" rx="2.5" ry="2.5" fill="#3a2530"><title>2025-11-16: 7 submissions</title></rect>
<rect x="252" y="20" width="11" height="11" rx="2.5" ry="2.5" fill="#3a2530"><title>2025-11-17: 5 submissions</title></rect>
<rect x="252" y="34" width="11" height="11" rx="2.5" ry="2.5" fill="#3a2530"><title>2025-11-18: 3 submissions</title></rect>
<rect x="252" y="48" width="11" height="11" rx="2.5" ry="2.5" fill="#7a3a52"><title>2025-11-19: 10 submissions</title></rect>
<rect x="252" y="62" width="11" height="11" rx="2.5" ry="2.5" fill="#3a2530"><title>2025-11-20: 4 submissions</title></rect>
<rect x="252" y="76" width="11" height="11" rx="2.5" ry="2.5" fill="#3a2530"><title>2025-11-21: 2 submissions</title></rect>
<rect x="252" y="90" width="11" height="11" rx="2.5" ry="2.5" fill="#7a3a52"><title>2025-11-22: 9 submissions</title></rect>
<rect x="252" y="104" width="11" height="11" rx="2.5" ry="2.5" fill="#c15c81"><title>2025-11-23: 16 submissions</title></rect>
<rect x="266" y="20" width="11" height="11" rx="2.5" ry="2.5" fill="#F48FB1"><title>2025-11-24: 25 submissions</title></rect>
<rect x="266" y="34" width="11" height="11" rx="2.5" ry="2.5" fill="#3a2530"><title>2025-11-25: 5 submissions</title></rect>
<rect x="266" y="48" width="11" height="11" rx="2.5" ry="2.5" fill="#c15c81"><title>2025-11-26: 18 submissions</title></rect>
<rect x="266" y="62" width="11" height="11" rx="2.5" ry="2.5" fill="#3a2530"><title>2025-11-27: 6 submissions</title></rect>
<rect x="266" y="76" width="11" height="11" rx="2.5" ry="2.5" fill="#c15c81"><title>2025-11-28: 17 submissions</title></rect>
<rect x="266" y="90" width="11" height="11" rx="2.5" ry="2.5" fill="#3a2530"><title>2025-11-29: 1 submissions</title></rect>
<rect x="266" y="104" width="11" height="11" rx="2.5" ry="2.5" fill="#3a2530"><title>2025-11-30: 2 submissions</title></rect>
<rect x="280" y="20" width="11" height="11" rx="2.5" ry="2.5" fill="#c15c81"><title>2025-12-01: 17 submissions</title></rect>
<text x="280" y="13" font-size="9" fill="#8b8f98">Dec</text>
<rect x="280" y="34" width="11" height="11" rx="2.5" ry="2.5" fill="#c15c81"><title>2025-12-02: 18 submissions</title></rect>
<rect x="280" y="48" width="11" height="11" rx="2.5" ry="2.5" fill="#3a2530"><title>2025-12-03: 7 submissions</title></rect>
<rect x="280" y="62" width="11" height="11" rx="2.5" ry="2.5" fill="#F48FB1"><title>2025-12-04: 28 submissions</title></rect>
<rect x="280" y="76" width="11" height="11" rx="2.5" ry="2.5" fill="#c15c81"><title>2025-12-05: 20 submissions</title></rect>
<rect x="280" y="90" width="11" height="11" rx="2.5" ry="2.5" fill="#3a2530"><title>2025-12-06: 2 submissions</title></rect>
<rect x="280" y="104" width="11" height="11" rx="2.5" ry="2.5" fill="#3a2530"><title>2025-12-07: 7 submissions</title></rect>
<rect x="294" y="20" width="11" height="11" rx="2.5" ry="2.5" fill="#c15c81"><title>2025-12-08: 18 submissions</title></rect>
<rect x="294" y="34" width="11" height="11" rx="2.5" ry="2.5" fill="#3a2530"><title>2025-12-09: 4 submissions</title></rect>
<rect x="294" y="48" width="11" height="11" rx="2.5" ry="2.5" fill="#3a2530"><title>2025-12-10: 2 submissions</title></rect>
<rect x="294" y="62" width="11" height="11" rx="2.5" ry="2.5" fill="#7a3a52"><title>2025-12-11: 8 submissions</title></rect>
<rect x="294" y="76" width="11" height="11" rx="2.5" ry="2.5" fill="#3a2530"><title>2025-12-12: 1 submissions</title></rect>
<rect x="294" y="90" width="11" height="11" rx="2.5" ry="2.5" fill="#3a2530"><title>2025-12-13: 2 submissions</title></rect>
<rect x="294" y="104" width="11" height="11" rx="2.5" ry="2.5" fill="#7a3a52"><title>2025-12-14: 9 submissions</title></rect>
<rect x="308" y="20" width="11" height="11" rx="2.5" ry="2.5" fill="#c15c81"><title>2025-12-15: 15 submissions</title></rect>
<rect x="308" y="34" width="11" height="11" rx="2.5" ry="2.5" fill="#3a2530"><title>2025-12-16: 1 submissions</title></rect>
<rect x="308" y="48" width="11" height="11" rx="2.5" ry="2.5" fill="#3a2530"><title>2025-12-17: 2 submissions</title></rect>
<rect x="308" y="62" width="11" height="11" rx="2.5" ry="2.5" fill="#3a2530"><title>2025-12-18: 1 submissions</title></rect>
<rect x="308" y="76" width="11" height="11" rx="2.5" ry="2.5" fill="#3a2530"><title>2025-12-19: 1 submissions</title></rect>
<rect x="308" y="90" width="11" height="11" rx="2.5" ry="2.5" fill="#3a2530"><title>2025-12-20: 1 submissions</title></rect>
<rect x="308" y="104" width="11" height="11" rx="2.5" ry="2.5" fill="#3a2530"><title>2025-12-21: 5 submissions</title></rect>
<rect x="322" y="20" width="11" height="11" rx="2.5" ry="2.5" fill="#c15c81"><title>2025-12-22: 16 submissions</title></rect>
<rect x="322" y="34" width="11" height="11" rx="2.5" ry="2.5" fill="#3a2530"><title>2025-12-23: 1 submissions</title></rect>
<rect x="322" y="48" width="11" height="11" rx="2.5" ry="2.5" fill="#3a2530"><title>2025-12-24: 1 submissions</title></rect>
<rect x="322" y="62" width="11" height="11" rx="2.5" ry="2.5" fill="#3a2530"><title>2025-12-25: 1 submissions</title></rect>
<rect x="322" y="76" width="11" height="11" rx="2.5" ry="2.5" fill="#c15c81"><title>2025-12-26: 15 submissions</title></rect>
<rect x="322" y="90" width="11" height="11" rx="2.5" ry="2.5" fill="#3a2530"><title>2025-12-27: 1 submissions</title></rect>
<rect x="322" y="104" width="11" height="11" rx="2.5" ry="2.5" fill="#3a2530"><title>2025-12-28: 2 submissions</title></rect>
<rect x="336" y="20" width="11" height="11" rx="2.5" ry="2.5" fill="#3a2530"><title>2025-12-29: 2 submissions</title></rect>
<rect x="336" y="34" width="11" height="11" rx="2.5" ry="2.5" fill="#3a2530"><title>2025-12-30: 2 submissions</title></rect>
<rect x="336" y="48" width="11" height="11" rx="2.5" ry="2.5" fill="#3a2530"><title>2025-12-31: 1 submissions</title></rect>
<rect x="336" y="62" width="11" height="11" rx="2.5" ry="2.5" fill="#3a2530"><title>2026-01-01: 1 submissions</title></rect>
<text x="336" y="13" font-size="9" fill="#8b8f98">Jan</text>
<rect x="336" y="76" width="11" height="11" rx="2.5" ry="2.5" fill="#3a2530"><title>2026-01-02: 2 submissions</title></rect>
<rect x="336" y="90" width="11" height="11" rx="2.5" ry="2.5" fill="#3a2530"><title>2026-01-03: 2 submissions</title></rect>
<rect x="336" y="104" width="11" height="11" rx="2.5" ry="2.5" fill="#3a2530"><title>2026-01-04: 6 submissions</title></rect>
<rect x="350" y="20" width="11" height="11" rx="2.5" ry="2.5" fill="#F48FB1"><title>2026-01-05: 22 submissions</title></rect>
<rect x="350" y="34" width="11" height="11" rx="2.5" ry="2.5" fill="#3a2530"><title>2026-01-06: 4 submissions</title></rect>
<rect x="350" y="48" width="11" height="11" rx="2.5" ry="2.5" fill="#3a2530"><title>2026-01-07: 6 submissions</title></rect>
<rect x="350" y="62" width="11" height="11" rx="2.5" ry="2.5" fill="#7a3a52"><title>2026-01-08: 11 submissions</title></rect>
<rect x="350" y="76" width="11" height="11" rx="2.5" ry="2.5" fill="#3a2530"><title>2026-01-09: 1 submissions</title></rect>
<rect x="350" y="90" width="11" height="11" rx="2.5" ry="2.5" fill="#3a2530"><title>2026-01-10: 5 submissions</title></rect>
<rect x="350" y="104" width="11" height="11" rx="2.5" ry="2.5" fill="#3a2530"><title>2026-01-11: 2 submissions</title></rect>
<rect x="364" y="20" width="11" height="11" rx="2.5" ry="2.5" fill="#7a3a52"><title>2026-01-12: 10 submissions</title></rect>
<rect x="364" y="34" width="11" height="11" rx="2.5" ry="2.5" fill="#7a3a52"><title>2026-01-13: 13 submissions</title></rect>
<rect x="364" y="48" width="11" height="11" rx="2.5" ry="2.5" fill="#7a3a52"><title>2026-01-14: 13 submissions</title></rect>
<rect x="364" y="62" width="11" height="11" rx="2.5" ry="2.5" fill="#c15c81"><title>2026-01-15: 21 submissions</title></rect>
<rect x="364" y="76" width="11" height="11" rx="2.5" ry="2.5" fill="#3a2530"><title>2026-01-16: 4 submissions</title></rect>
<rect x="364" y="90" width="11" height="11" rx="2.5" ry="2.5" fill="#3a2530"><title>2026-01-17: 5 submissions</title></rect>
<rect x="364" y="104" width="11" height="11" rx="2.5" ry="2.5" fill="#7a3a52"><title>2026-01-18: 9 submissions</title></rect>
<rect x="378" y="20" width="11" height="11" rx="2.5" ry="2.5" fill="#7a3a52"><title>2026-01-19: 8 submissions</title></rect>
<rect x="378" y="34" width="11" height="11" rx="2.5" ry="2.5" fill="#7a3a52"><title>2026-01-20: 14 submissions</title></rect>
<rect x="378" y="48" width="11" height="11" rx="2.5" ry="2.5" fill="#7a3a52"><title>2026-01-21: 8 submissions</title></rect>
<rect x="378" y="62" width="11" height="11" rx="2.5" ry="2.5" fill="#c15c81"><title>2026-01-22: 15 submissions</title></rect>
<rect x="378" y="76" width="11" height="11" rx="2.5" ry="2.5" fill="#7a3a52"><title>2026-01-23: 9 submissions</title></rect>
<rect x="378" y="90" width="11" height="11" rx="2.5" ry="2.5" fill="#c15c81"><title>2026-01-24: 19 submissions</title></rect>
<rect x="378" y="104" width="11" height="11" rx="2.5" ry="2.5" fill="#7a3a52"><title>2026-01-25: 13 submissions</title></rect>
<rect x="392" y="20" width="11" height="11" rx="2.5" ry="2.5" fill="#7a3a52"><title>2026-01-26: 13 submissions</title></rect>
<rect x="392" y="34" width="11" height="11" rx="2.5" ry="2.5" fill="#3a2530"><title>2026-01-27: 5 submissions</title></rect>
<rect x="392" y="48" width="11" height="11" rx="2.5" ry="2.5" fill="#7a3a52"><title>2026-01-28: 11 submissions</title></rect>
<rect x="392" y="62" width="11" height="11" rx="2.5" ry="2.5" fill="#3a2530"><title>2026-01-29: 5 submissions</title></rect>
<rect x="392" y="76" width="11" height="11" rx="2.5" ry="2.5" fill="#F48FB1"><title>2026-01-30: 24 submissions</title></rect>
<rect x="392" y="90" width="11" height="11" rx="2.5" ry="2.5" fill="#3a2530"><title>2026-01-31: 1 submissions</title></rect>
<rect x="392" y="104" width="11" height="11" rx="2.5" ry="2.5" fill="#3a2530"><title>2026-02-01: 7 submissions</title></rect>
<text x="392" y="13" font-size="9" fill="#8b8f98">Feb</text>
<rect x="406" y="20" width="11" height="11" rx="2.5" ry="2.5" fill="#3a2530"><title>2026-02-02: 4 submissions</title></rect>
<rect x="406" y="34" width="11" height="11" rx="2.5" ry="2.5" fill="#3a2530"><title>2026-02-03: 1 submissions</title></rect>
<rect x="406" y="48" width="11" height="11" rx="2.5" ry="2.5" fill="#3a2530"><title>2026-02-04: 2 submissions</title></rect>
<rect x="406" y="62" width="11" height="11" rx="2.5" ry="2.5" fill="#3a2530"><title>2026-02-05: 1 submissions</title></rect>
<rect x="406" y="76" width="11" height="11" rx="2.5" ry="2.5" fill="#3a2530"><title>2026-02-06: 1 submissions</title></rect>
<rect x="406" y="90" width="11" height="11" rx="2.5" ry="2.5" fill="#3a2530"><title>2026-02-07: 1 submissions</title></rect>
<rect x="406" y="104" width="11" height="11" rx="2.5" ry="2.5" fill="#3a2530"><title>2026-02-08: 1 submissions</title></rect>
<rect x="420" y="20" width="11" height="11" rx="2.5" ry="2.5" fill="#3a2530"><title>2026-02-09: 3 submissions</title></rect>
<rect x="420" y="34" width="11" height="11" rx="2.5" ry="2.5" fill="#3a2530"><title>2026-02-10: 1 submissions</title></rect>
<rect x="420" y="48" width="11" height="11" rx="2.5" ry="2.5" fill="#3a2530"><title>2026-02-11: 1 submissions</title></rect>
<rect x="420" y="62" width="11" height="11" rx="2.5" ry="2.5" fill="#3a2530"><title>2026-02-12: 1 submissions</title></rect>
<rect x="420" y="76" width="11" height="11" rx="2.5" ry="2.5" fill="#3a2530"><title>2026-02-13: 1 submissions</title></rect>
<rect x="420" y="90" width="11" height="11" rx="2.5" ry="2.5" fill="#3a2530"><title>2026-02-14: 1 submissions</title></rect>
<rect x="420" y="104" width="11" height="11" rx="2.5" ry="2.5" fill="#3a2530"><title>2026-02-15: 4 submissions</title></rect>
<rect x="434" y="20" width="11" height="11" rx="2.5" ry="2.5" fill="#3a2530"><title>2026-02-16: 4 submissions</title></rect>
<rect x="434" y="34" width="11" height="11" rx="2.5" ry="2.5" fill="#3a2530"><title>2026-02-17: 1 submissions</title></rect>
<rect x="434" y="48" width="11" height="11" rx="2.5" ry="2.5" fill="#3a2530"><title>2026-02-18: 1 submissions</title></rect>
<rect x="434" y="62" width="11" height="11" rx="2.5" ry="2.5" fill="#3a2530"><title>2026-02-19: 1 submissions</title></rect>
<rect x="434" y="76" width="11" height="11" rx="2.5" ry="2.5" fill="#3a2530"><title>2026-02-20: 1 submissions</title></rect>
<rect x="434" y="90" width="11" height="11" rx="2.5" ry="2.5" fill="#3a2530"><title>2026-02-21: 1 submissions</title></rect>
<rect x="434" y="104" width="11" height="11" rx="2.5" ry="2.5" fill="#3a2530"><title>2026-02-22: 1 submissions</title></rect>
<rect x="448" y="20" width="11" height="11" rx="2.5" ry="2.5" fill="#7a3a52"><title>2026-02-23: 14 submissions</title></rect>
<rect x="448" y="34" width="11" height="11" rx="2.5" ry="2.5" fill="#3a2530"><title>2026-02-24: 6 submissions</title></rect>
<rect x="448" y="48" width="11" height="11" rx="2.5" ry="2.5" fill="#3a2530"><title>2026-02-25: 1 submissions</title></rect>
<rect x="448" y="62" width="11" height="11" rx="2.5" ry="2.5" fill="#3a2530"><title>2026-02-26: 3 submissions</title></rect>
<rect x="448" y="76" width="11" height="11" rx="2.5" ry="2.5" fill="#3a2530"><title>2026-02-27: 1 submissions</title></rect>
<rect x="448" y="90" width="11" height="11" rx="2.5" ry="2.5" fill="#3a2530"><title>2026-02-28: 1 submissions</title></rect>
<rect x="448" y="104" width="11" height="11" rx="2.5" ry="2.5" fill="#3a2530"><title>2026-03-01: 4 submissions</title></rect>
<text x="448" y="13" font-size="9" fill="#8b8f98">Mar</text>
<rect x="462" y="20" width="11" height="11" rx="2.5" ry="2.5" fill="#3a2530"><title>2026-03-02: 7 submissions</title></rect>
<rect x="462" y="34" width="11" height="11" rx="2.5" ry="2.5" fill="#3a2530"><title>2026-03-03: 4 submissions</title></rect>
<rect x="462" y="48" width="11" height="11" rx="2.5" ry="2.5" fill="#3a2530"><title>2026-03-04: 1 submissions</title></rect>
<rect x="462" y="62" width="11" height="11" rx="2.5" ry="2.5" fill="#3a2530"><title>2026-03-05: 1 submissions</title></rect>
<rect x="462" y="76" width="11" height="11" rx="2.5" ry="2.5" fill="#3a2530"><title>2026-03-06: 1 submissions</title></rect>
<rect x="462" y="90" width="11" height="11" rx="2.5" ry="2.5" fill="#3a2530"><title>2026-03-07: 1 submissions</title></rect>
<rect x="462" y="104" width="11" height="11" rx="2.5" ry="2.5" fill="#3a2530"><title>2026-03-08: 1 submissions</title></rect>
<rect x="476" y="20" width="11" height="11" rx="2.5" ry="2.5" fill="#7a3a52"><title>2026-03-09: 12 submissions</title></rect>
<rect x="476" y="34" width="11" height="11" rx="2.5" ry="2.5" fill="#3a2530"><title>2026-03-10: 1 submissions</title></rect>
<rect x="476" y="48" width="11" height="11" rx="2.5" ry="2.5" fill="#3a2530"><title>2026-03-11: 1 submissions</title></rect>
<rect x="476" y="62" width="11" height="11" rx="2.5" ry="2.5" fill="#3a2530"><title>2026-03-12: 1 submissions</title></rect>
<rect x="476" y="76" width="11" height="11" rx="2.5" ry="2.5" fill="#3a2530"><title>2026-03-13: 1 submissions</title></rect>
<rect x="476" y="90" width="11" height="11" rx="2.5" ry="2.5" fill="#3a2530"><title>2026-03-14: 3 submissions</title></rect>
<rect x="476" y="104" width="11" height="11" rx="2.5" ry="2.5" fill="#7a3a52"><title>2026-03-15: 14 submissions</title></rect>
<rect x="490" y="20" width="11" height="11" rx="2.5" ry="2.5" fill="#3a2530"><title>2026-03-16: 3 submissions</title></rect>
<rect x="490" y="34" width="11" height="11" rx="2.5" ry="2.5" fill="#3a2530"><title>2026-03-17: 1 submissions</title></rect>
<rect x="490" y="48" width="11" height="11" rx="2.5" ry="2.5" fill="#3a2530"><title>2026-03-18: 2 submissions</title></rect>
<rect x="490" y="62" width="11" height="11" rx="2.5" ry="2.5" fill="#3a2530"><title>2026-03-19: 1 submissions</title></rect>
<rect x="490" y="76" width="11" height="11" rx="2.5" ry="2.5" fill="#3a2530"><title>2026-03-20: 1 submissions</title></rect>
<rect x="490" y="90" width="11" height="11" rx="2.5" ry="2.5" fill="#3a2530"><title>2026-03-21: 1 submissions</title></rect>
<rect x="490" y="104" width="11" height="11" rx="2.5" ry="2.5" fill="#3a2530"><title>2026-03-22: 1 submissions</title></rect>
<rect x="504" y="20" width="11" height="11" rx="2.5" ry="2.5" fill="#7a3a52"><title>2026-03-23: 13 submissions</title></rect>
<rect x="504" y="34" width="11" height="11" rx="2.5" ry="2.5" fill="#3a2530"><title>2026-03-24: 1 submissions</title></rect>
<rect x="504" y="48" width="11" height="11" rx="2.5" ry="2.5" fill="#3a2530"><title>2026-03-25: 2 submissions</title></rect>
<rect x="504" y="62" width="11" height="11" rx="2.5" ry="2.5" fill="#3a2530"><title>2026-03-26: 1 submissions</title></rect>
<rect x="504" y="76" width="11" height="11" rx="2.5" ry="2.5" fill="#3a2530"><title>2026-03-27: 1 submissions</title></rect>
<rect x="504" y="90" width="11" height="11" rx="2.5" ry="2.5" fill="#3a2530"><title>2026-03-28: 5 submissions</title></rect>
<rect x="504" y="104" width="11" height="11" rx="2.5" ry="2.5" fill="#7a3a52"><title>2026-03-29: 8 submissions</title></rect>
<rect x="518" y="20" width="11" height="11" rx="2.5" ry="2.5" fill="#7a3a52"><title>2026-03-30: 12 submissions</title></rect>
<rect x="518" y="34" width="11" height="11" rx="2.5" ry="2.5" fill="#3a2530"><title>2026-03-31: 7 submissions</title></rect>
<rect x="518" y="48" width="11" height="11" rx="2.5" ry="2.5" fill="#7a3a52"><title>2026-04-01: 8 submissions</title></rect>
<text x="518" y="13" font-size="9" fill="#8b8f98">Apr</text>
<rect x="518" y="62" width="11" height="11" rx="2.5" ry="2.5" fill="#3a2530"><title>2026-04-02: 1 submissions</title></rect>
<rect x="518" y="76" width="11" height="11" rx="2.5" ry="2.5" fill="#7a3a52"><title>2026-04-03: 12 submissions</title></rect>
<rect x="518" y="90" width="11" height="11" rx="2.5" ry="2.5" fill="#3a2530"><title>2026-04-04: 1 submissions</title></rect>
<rect x="518" y="104" width="11" height="11" rx="2.5" ry="2.5" fill="#3a2530"><title>2026-04-05: 5 submissions</title></rect>
<rect x="532" y="20" width="11" height="11" rx="2.5" ry="2.5" fill="#3a2530"><title>2026-04-06: 5 submissions</title></rect>
<rect x="532" y="34" width="11" height="11" rx="2.5" ry="2.5" fill="#3a2530"><title>2026-04-07: 1 submissions</title></rect>
<rect x="532" y="48" width="11" height="11" rx="2.5" ry="2.5" fill="#3a2530"><title>2026-04-08: 1 submissions</title></rect>
<rect x="532" y="62" width="11" height="11" rx="2.5" ry="2.5" fill="#3a2530"><title>2026-04-09: 1 submissions</title></rect>
<rect x="532" y="76" width="11" height="11" rx="2.5" ry="2.5" fill="#3a2530"><title>2026-04-10: 1 submissions</title></rect>
<rect x="532" y="90" width="11" height="11" rx="2.5" ry="2.5" fill="#3a2530"><title>2026-04-11: 2 submissions</title></rect>
<rect x="532" y="104" width="11" height="11" rx="2.5" ry="2.5" fill="#7a3a52"><title>2026-04-12: 11 submissions</title></rect>
<rect x="546" y="20" width="11" height="11" rx="2.5" ry="2.5" fill="#3a2530"><title>2026-04-13: 4 submissions</title></rect>
<rect x="546" y="34" width="11" height="11" rx="2.5" ry="2.5" fill="#3a2530"><title>2026-04-14: 1 submissions</title></rect>
<rect x="546" y="48" width="11" height="11" rx="2.5" ry="2.5" fill="#3a2530"><title>2026-04-15: 1 submissions</title></rect>
<rect x="546" y="62" width="11" height="11" rx="2.5" ry="2.5" fill="#3a2530"><title>2026-04-16: 2 submissions</title></rect>
<rect x="546" y="76" width="11" height="11" rx="2.5" ry="2.5" fill="#3a2530"><title>2026-04-17: 7 submissions</title></rect>
<rect x="546" y="90" width="11" height="11" rx="2.5" ry="2.5" fill="#7a3a52"><title>2026-04-18: 8 submissions</title></rect>
<rect x="546" y="104" width="11" height="11" rx="2.5" ry="2.5" fill="#3a2530"><title>2026-04-19: 3 submissions</title></rect>
<rect x="560" y="20" width="11" height="11" rx="2.5" ry="2.5" fill="#3a2530"><title>2026-04-20: 4 submissions</title></rect>
<rect x="560" y="34" width="11" height="11" rx="2.5" ry="2.5" fill="#3a2530"><title>2026-04-21: 1 submissions</title></rect>
<rect x="560" y="48" width="11" height="11" rx="2.5" ry="2.5" fill="#3a2530"><title>2026-04-22: 1 submissions</title></rect>
<rect x="560" y="62" width="11" height="11" rx="2.5" ry="2.5" fill="#3a2530"><title>2026-04-23: 1 submissions</title></rect>
<rect x="560" y="76" width="11" height="11" rx="2.5" ry="2.5" fill="#3a2530"><title>2026-04-24: 2 submissions</title></rect>
<rect x="560" y="90" width="11" height="11" rx="2.5" ry="2.5" fill="#7a3a52"><title>2026-04-25: 12 submissions</title></rect>
<rect x="560" y="104" width="11" height="11" rx="2.5" ry="2.5" fill="#3a2530"><title>2026-04-26: 4 submissions</title></rect>
<rect x="574" y="20" width="11" height="11" rx="2.5" ry="2.5" fill="#7a3a52"><title>2026-04-27: 10 submissions</title></rect>
<rect x="574" y="34" width="11" height="11" rx="2.5" ry="2.5" fill="#3a2530"><title>2026-04-28: 3 submissions</title></rect>
<rect x="574" y="48" width="11" height="11" rx="2.5" ry="2.5" fill="#3a2530"><title>2026-04-29: 1 submissions</title></rect>
<rect x="574" y="62" width="11" height="11" rx="2.5" ry="2.5" fill="#3a2530"><title>2026-04-30: 1 submissions</title></rect>
<rect x="574" y="76" width="11" height="11" rx="2.5" ry="2.5" fill="#3a2530"><title>2026-05-01: 3 submissions</title></rect>
<text x="574" y="13" font-size="9" fill="#8b8f98">May</text>
<rect x="574" y="90" width="11" height="11" rx="2.5" ry="2.5" fill="#7a3a52"><title>2026-05-02: 8 submissions</title></rect>
<rect x="574" y="104" width="11" height="11" rx="2.5" ry="2.5" fill="#3a2530"><title>2026-05-03: 5 submissions</title></rect>
<rect x="588" y="20" width="11" height="11" rx="2.5" ry="2.5" fill="#3a2530"><title>2026-05-04: 4 submissions</title></rect>
<rect x="588" y="34" width="11" height="11" rx="2.5" ry="2.5" fill="#3a2530"><title>2026-05-05: 1 submissions</title></rect>
<rect x="588" y="48" width="11" height="11" rx="2.5" ry="2.5" fill="#3a2530"><title>2026-05-06: 6 submissions</title></rect>
<rect x="588" y="62" width="11" height="11" rx="2.5" ry="2.5" fill="#3a2530"><title>2026-05-07: 1 submissions</title></rect>
<rect x="588" y="76" width="11" height="11" rx="2.5" ry="2.5" fill="#3a2530"><title>2026-05-08: 1 submissions</title></rect>
<rect x="588" y="90" width="11" height="11" rx="2.5" ry="2.5" fill="#3a2530"><title>2026-05-09: 1 submissions</title></rect>
<rect x="588" y="104" width="11" height="11" rx="2.5" ry="2.5" fill="#3a2530"><title>2026-05-10: 6 submissions</title></rect>
<rect x="602" y="20" width="11" height="11" rx="2.5" ry="2.5" fill="#7a3a52"><title>2026-05-11: 12 submissions</title></rect>
<rect x="602" y="34" width="11" height="11" rx="2.5" ry="2.5" fill="#3a2530"><title>2026-05-12: 2 submissions</title></rect>
<rect x="602" y="48" width="11" height="11" rx="2.5" ry="2.5" fill="#3a2530"><title>2026-05-13: 3 submissions</title></rect>
<rect x="602" y="62" width="11" height="11" rx="2.5" ry="2.5" fill="#3a2530"><title>2026-05-14: 2 submissions</title></rect>
<rect x="602" y="76" width="11" height="11" rx="2.5" ry="2.5" fill="#3a2530"><title>2026-05-15: 1 submissions</title></rect>
<rect x="602" y="90" width="11" height="11" rx="2.5" ry="2.5" fill="#3a2530"><title>2026-05-16: 1 submissions</title></rect>
<rect x="602" y="104" width="11" height="11" rx="2.5" ry="2.5" fill="#3a2530"><title>2026-05-17: 4 submissions</title></rect>
<rect x="616" y="20" width="11" height="11" rx="2.5" ry="2.5" fill="#3a2530"><title>2026-05-18: 7 submissions</title></rect>
<rect x="616" y="34" width="11" height="11" rx="2.5" ry="2.5" fill="#3a2530"><title>2026-05-19: 1 submissions</title></rect>
<rect x="616" y="48" width="11" height="11" rx="2.5" ry="2.5" fill="#3a2530"><title>2026-05-20: 3 submissions</title></rect>
<rect x="616" y="62" width="11" height="11" rx="2.5" ry="2.5" fill="#3a2530"><title>2026-05-21: 1 submissions</title></rect>
<rect x="616" y="76" width="11" height="11" rx="2.5" ry="2.5" fill="#3a2530"><title>2026-05-22: 1 submissions</title></rect>
<rect x="616" y="90" width="11" height="11" rx="2.5" ry="2.5" fill="#3a2530"><title>2026-05-23: 1 submissions</title></rect>
<rect x="616" y="104" width="11" height="11" rx="2.5" ry="2.5" fill="#3a2530"><title>2026-05-24: 6 submissions</title></rect>
<rect x="630" y="20" width="11" height="11" rx="2.5" ry="2.5" fill="#3a2530"><title>2026-05-25: 6 submissions</title></rect>
<rect x="630" y="34" width="11" height="11" rx="2.5" ry="2.5" fill="#3a2530"><title>2026-05-26: 1 submissions</title></rect>
<rect x="630" y="48" width="11" height="11" rx="2.5" ry="2.5" fill="#3a2530"><title>2026-05-27: 1 submissions</title></rect>
<rect x="630" y="62" width="11" height="11" rx="2.5" ry="2.5" fill="#3a2530"><title>2026-05-28: 1 submissions</title></rect>
<rect x="630" y="76" width="11" height="11" rx="2.5" ry="2.5" fill="#3a2530"><title>2026-05-29: 1 submissions</title></rect>
<rect x="630" y="90" width="11" height="11" rx="2.5" ry="2.5" fill="#3a2530"><title>2026-05-30: 1 submissions</title></rect>
<rect x="630" y="104" width="11" height="11" rx="2.5" ry="2.5" fill="#3a2530"><title>2026-05-31: 3 submissions</title></rect>
<rect x="644" y="20" width="11" height="11" rx="2.5" ry="2.5" fill="#3a2530"><title>2026-06-01: 4 submissions</title></rect>
<text x="644" y="13" font-size="9" fill="#8b8f98">Jun</text>
<rect x="644" y="34" width="11" height="11" rx="2.5" ry="2.5" fill="#3a2530"><title>2026-06-02: 5 submissions</title></rect>
<rect x="644" y="48" width="11" height="11" rx="2.5" ry="2.5" fill="#3a2530"><title>2026-06-03: 1 submissions</title></rect>
<rect x="644" y="62" width="11" height="11" rx="2.5" ry="2.5" fill="#3a2530"><title>2026-06-04: 2 submissions</title></rect>
<rect x="644" y="76" width="11" height="11" rx="2.5" ry="2.5" fill="#3a2530"><title>2026-06-05: 1 submissions</title></rect>
<rect x="644" y="90" width="11" height="11" rx="2.5" ry="2.5" fill="#3a2530"><title>2026-06-06: 1 submissions</title></rect>
<rect x="644" y="104" width="11" height="11" rx="2.5" ry="2.5" fill="#3a2530"><title>2026-06-07: 3 submissions</title></rect>
<rect x="658" y="20" width="11" height="11" rx="2.5" ry="2.5" fill="#3a2530"><title>2026-06-08: 5 submissions</title></rect>
<rect x="658" y="34" width="11" height="11" rx="2.5" ry="2.5" fill="#3a2530"><title>2026-06-09: 1 submissions</title></rect>
<rect x="658" y="48" width="11" height="11" rx="2.5" ry="2.5" fill="#3a2530"><title>2026-06-10: 1 submissions</title></rect>
<rect x="658" y="62" width="11" height="11" rx="2.5" ry="2.5" fill="#3a2530"><title>2026-06-11: 1 submissions</title></rect>
<rect x="658" y="76" width="11" height="11" rx="2.5" ry="2.5" fill="#3a2530"><title>2026-06-12: 2 submissions</title></rect>
<rect x="658" y="90" width="11" height="11" rx="2.5" ry="2.5" fill="#3a2530"><title>2026-06-13: 1 submissions</title></rect>
<rect x="658" y="104" width="11" height="11" rx="2.5" ry="2.5" fill="#3a2530"><title>2026-06-14: 2 submissions</title></rect>
<rect x="672" y="20" width="11" height="11" rx="2.5" ry="2.5" fill="#3a2530"><title>2026-06-15: 6 submissions</title></rect>
<rect x="672" y="34" width="11" height="11" rx="2.5" ry="2.5" fill="#3a2530"><title>2026-06-16: 1 submissions</title></rect>
<rect x="672" y="48" width="11" height="11" rx="2.5" ry="2.5" fill="#3a2530"><title>2026-06-17: 1 submissions</title></rect>
<rect x="672" y="62" width="11" height="11" rx="2.5" ry="2.5" fill="#3a2530"><title>2026-06-18: 1 submissions</title></rect>
<rect x="672" y="76" width="11" height="11" rx="2.5" ry="2.5" fill="#3a2530"><title>2026-06-19: 1 submissions</title></rect>
<rect x="672" y="90" width="11" height="11" rx="2.5" ry="2.5" fill="#3a2530"><title>2026-06-20: 1 submissions</title></rect>
<rect x="672" y="104" width="11" height="11" rx="2.5" ry="2.5" fill="#3a2530"><title>2026-06-21: 1 submissions</title></rect>
<rect x="686" y="20" width="11" height="11" rx="2.5" ry="2.5" fill="#3a2530"><title>2026-06-22: 1 submissions</title></rect>
<rect x="686" y="34" width="11" height="11" rx="2.5" ry="2.5" fill="#3a2530"><title>2026-06-23: 2 submissions</title></rect>
<rect x="686" y="48" width="11" height="11" rx="2.5" ry="2.5" fill="#3a2530"><title>2026-06-24: 1 submissions</title></rect>
<rect x="686" y="62" width="11" height="11" rx="2.5" ry="2.5" fill="#3a2530"><title>2026-06-25: 5 submissions</title></rect>
<rect x="686" y="76" width="11" height="11" rx="2.5" ry="2.5" fill="#3a2530"><title>2026-06-26: 1 submissions</title></rect>
<rect x="686" y="90" width="11" height="11" rx="2.5" ry="2.5" fill="#3a2530"><title>2026-06-27: 1 submissions</title></rect>
<rect x="686" y="104" width="11" height="11" rx="2.5" ry="2.5" fill="#3a2530"><title>2026-06-28: 1 submissions</title></rect>
<rect x="700" y="20" width="11" height="11" rx="2.5" ry="2.5" fill="#3a2530"><title>2026-06-29: 1 submissions</title></rect>
<rect x="700" y="34" width="11" height="11" rx="2.5" ry="2.5" fill="#3a2530"><title>2026-06-30: 3 submissions</title></rect>
<rect x="700" y="48" width="11" height="11" rx="2.5" ry="2.5" fill="#3a2530"><title>2026-07-01: 2 submissions</title></rect>
<text x="700" y="13" font-size="9" fill="#8b8f98">Jul</text>
<rect x="700" y="62" width="11" height="11" rx="2.5" ry="2.5" fill="#3a2530"><title>2026-07-02: 1 submissions</title></rect>
<rect x="700" y="76" width="11" height="11" rx="2.5" ry="2.5" fill="#3a2530"><title>2026-07-03: 1 submissions</title></rect>
<rect x="700" y="90" width="11" height="11" rx="2.5" ry="2.5" fill="#3a2530"><title>2026-07-04: 2 submissions</title></rect>
<rect x="700" y="104" width="11" height="11" rx="2.5" ry="2.5" fill="#3a2530"><title>2026-07-05: 2 submissions</title></rect>
<rect x="714" y="20" width="11" height="11" rx="2.5" ry="2.5" fill="#3a2530"><title>2026-07-06: 1 submissions</title></rect>
<rect x="714" y="34" width="11" height="11" rx="2.5" ry="2.5" fill="#3a2530"><title>2026-07-07: 1 submissions</title></rect>
<rect x="714" y="48" width="11" height="11" rx="2.5" ry="2.5" fill="#3a2530"><title>2026-07-08: 1 submissions</title></rect>
<rect x="714" y="62" width="11" height="11" rx="2.5" ry="2.5" fill="#3a2530"><title>2026-07-09: 4 submissions</title></rect>
<rect x="714" y="76" width="11" height="11" rx="2.5" ry="2.5" fill="#3a2530"><title>2026-07-10: 4 submissions</title></rect>
<rect x="714" y="90" width="11" height="11" rx="2.5" ry="2.5" fill="#3a2530"><title>2026-07-11: 4 submissions</title></rect>
<rect x="714" y="104" width="11" height="11" rx="2.5" ry="2.5" fill="#3a2530"><title>2026-07-12: 4 submissions</title></rect>
<rect x="728" y="20" width="11" height="11" rx="2.5" ry="2.5" fill="#7a3a52"><title>2026-07-13: 8 submissions</title></rect>
<rect x="728" y="34" width="11" height="11" rx="2.5" ry="2.5" fill="#3a2530"><title>2026-07-14: 4 submissions</title></rect>
<rect x="728" y="48" width="11" height="11" rx="2.5" ry="2.5" fill="#3a2530"><title>2026-07-15: 5 submissions</title></rect>
<rect x="728" y="62" width="11" height="11" rx="2.5" ry="2.5" fill="#3a2530"><title>2026-07-16: 3 submissions</title></rect>
<rect x="728" y="76" width="11" height="11" rx="2.5" ry="2.5" fill="#3a2530"><title>2026-07-17: 1 submissions</title></rect>
<rect x="728" y="90" width="11" height="11" rx="2.5" ry="2.5" fill="#3a2530"><title>2026-07-18: 3 submissions</title></rect>
<rect x="728" y="104" width="11" height="11" rx="2.5" ry="2.5" fill="#7a3a52"><title>2026-07-19: 8 submissions</title></rect>
<rect x="742" y="20" width="11" height="11" rx="2.5" ry="2.5" fill="#3a2530"><title>2026-07-20: 4 submissions</title></rect>
<rect x="742" y="34" width="11" height="11" rx="2.5" ry="2.5" fill="#3a2530"><title>2026-07-21: 1 submissions</title></rect>
<rect x="742" y="48" width="11" height="11" rx="2.5" ry="2.5" fill="#3a2530"><title>2026-07-22: 1 submissions</title></rect>
<rect x="742" y="62" width="11" height="11" rx="2.5" ry="2.5" fill="#3a2530"><title>2026-07-23: 1 submissions</title></rect>
<rect x="742" y="76" width="11" height="11" rx="2.5" ry="2.5" fill="#3a2530"><title>2026-07-24: 1 submissions</title></rect>
<rect x="742" y="90" width="11" height="11" rx="2.5" ry="2.5" fill="#3a2530"><title>2026-07-25: 4 submissions</title></rect>
<rect x="742" y="104" width="11" height="11" rx="2.5" ry="2.5" fill="#3a2530"><title>2026-07-26: 1 submissions</title></rect>
<rect x="756" y="20" width="11" height="11" rx="2.5" ry="2.5" fill="#3a2530"><title>2026-07-27: 6 submissions</title></rect>
<rect x="756" y="34" width="11" height="11" rx="2.5" ry="2.5" fill="#3a2530"><title>2026-07-28: 1 submissions</title></rect>
<rect x="756" y="48" width="11" height="11" rx="2.5" ry="2.5" fill="#3a2530"><title>2026-07-29: 1 submissions</title></rect>
<rect x="756" y="62" width="11" height="11" rx="2.5" ry="2.5" fill="#3a2530"><title>2026-07-30: 1 submissions</title></rect>
<rect x="756" y="76" width="11" height="11" rx="2.5" ry="2.5" fill="#3a2530"><title>2026-07-31: 2 submissions</title></rect>
<rect x="756" y="90" width="11" height="11" rx="2.5" ry="2.5" fill="#3a2530"><title>2026-08-01: 1 submissions</title></rect>
<rect x="756" y="104" width="11" height="11" rx="2.5" ry="2.5" fill="#1b1f27"><title>2026-08-02: 0 submissions</title></rect>
<text x="0" y="43" font-size="9" fill="#8b8f98">Mon</text>
<text x="0" y="71" font-size="9" fill="#8b8f98">Wed</text>
<text x="0" y="99" font-size="9" fill="#8b8f98">Fri</text>
<text x="656" y="122" font-size="9" fill="#8b8f98">Less</text>
<rect x="686" y="113" width="11" height="11" rx="2.5" ry="2.5" fill="#1b1f27"/>
<rect x="700" y="113" width="11" height="11" rx="2.5" ry="2.5" fill="#3a2530"/>
<rect x="714" y="113" width="11" height="11" rx="2.5" ry="2.5" fill="#7a3a52"/>
<rect x="728" y="113" width="11" height="11" rx="2.5" ry="2.5" fill="#c15c81"/>
<rect x="742" y="113" width="11" height="11" rx="2.5" ry="2.5" fill="#F48FB1"/>
<rect x="756" y="113" width="11" height="11" rx="2.5" ry="2.5" fill="#F8BBD0"/>
<text x="774" y="122" font-size="9" fill="#8b8f98">More</text>
</svg>